<svg width="20" height="20" viewBox="0 0 20 20" fill="none" xmlns="http://www.w3.org/2000/svg">
<g id="System / Search">
<path id="icon" d="M16.8194 15.6533L14.2527 13.1575C14.2419 13.1467 14.2269 13.1433 14.216 13.1333C14.9735 12.1492 15.4294 10.92 15.4294 9.58333C15.4294 6.36167 12.8177 3.75 9.59603 3.75C6.37436 3.75 3.7627 6.36167 3.7627 9.58333C3.7627 12.805 6.37436 15.4167 9.59603 15.4167C10.8869 15.4167 12.076 14.9917 13.0427 14.2808C13.061 14.3033 13.0702 14.3308 13.091 14.3517L15.6577 16.8475C15.8194 17.005 16.0294 17.0833 16.2385 17.0833C16.456 17.0833 16.6727 16.9983 16.836 16.8308C17.156 16.5008 17.1485 15.9733 16.8194 15.6533ZM9.5952 13.75C7.2977 13.75 5.42853 11.8808 5.42853 9.58333C5.42853 7.28583 7.2977 5.41667 9.5952 5.41667C11.8927 5.41667 13.7619 7.28583 13.7619 9.58333C13.7619 11.8808 11.8927 13.75 9.5952 13.75Z" fill="#444446"/>
</g>
</svg>
